<svg width="96" height="96" viewBox="0 0 96 96" fill="none" xmlns="http://www.w3.org/2000/svg">
<rect width="96" height="96" rx="16" fill="white"/>
<path d="M32.2187 33.3262C32.6256 32.9041 33.1713 32.6723 33.7343 32.6723H62.2657C62.8287 32.6723 63.3744 32.9041 63.7813 33.3262C64.1891 33.7494 64.4231 34.3292 64.4231 34.9396C64.4231 35.55 64.1891 36.1298 63.7813 36.553C63.3744 36.9752 62.8287 37.2069 62.2657 37.2069H33.7343C33.1713 37.2069 32.6256 36.9752 32.2187 36.553C31.8109 36.1298 31.5769 35.55 31.5769 34.9396C31.5769 34.3292 31.8109 33.7494 32.2187 33.3262ZM33.7343 28.5C32.0716 28.5 30.4829 29.1856 29.3161 30.3963C28.1501 31.606 27.5 33.2408 27.5 34.9396C27.5 36.6384 28.1501 38.2732 29.3161 39.4829C30.4829 40.6936 32.0716 41.3792 33.7343 41.3792H62.2657C63.9284 41.3792 65.5171 40.6936 66.6839 39.4829C67.8499 38.2732 68.5 36.6384 68.5 34.9396C68.5 33.2408 67.8499 31.606 66.6839 30.3963C65.5171 29.1856 63.9284 28.5 62.2657 28.5H33.7343ZM29.5385 45.9139C28.3984 45.9139 27.5 46.8623 27.5 48C27.5 49.1376 28.3984 50.0861 29.5385 50.0861H66.4615C67.6016 50.0861 68.5 49.1376 68.5 48C68.5 46.8623 67.6016 45.9139 66.4615 45.9139H29.5385ZM29.5385 54.6208C28.3984 54.6208 27.5 55.5693 27.5 56.7069C27.5 57.8446 28.3984 58.7931 29.5385 58.7931H66.4615C67.6016 58.7931 68.5 57.8446 68.5 56.7069C68.5 55.5693 67.6016 54.6208 66.4615 54.6208H29.5385ZM29.5385 63.3277C28.3984 63.3277 27.5 64.2762 27.5 65.4139C27.5 66.5515 28.3984 67.5 29.5385 67.5H66.4615C67.6016 67.5 68.5 66.5515 68.5 65.4139C68.5 64.2762 67.6016 63.3277 66.4615 63.3277H29.5385Z" fill="#404040" stroke="#404040" stroke-linecap="round" stroke-linejoin="round"/>
</svg>
