<svg width="70" height="71" viewBox="0 0 70 71" fill="none" xmlns="http://www.w3.org/2000/svg">
<path fill-rule="evenodd" clip-rule="evenodd" d="M41.4815 12.247H28.5185C19.2115 12.247 11.6667 19.7918 11.6667 29.0988V42.0618C11.6667 51.3688 19.2115 58.9137 28.5185 58.9137H41.4815C50.7885 58.9137 58.3333 51.3688 58.3333 42.0618V29.0988C58.3333 19.7918 50.7885 12.247 41.4815 12.247ZM28.5185 0.580322C12.7682 0.580322 0 13.3485 0 29.0988V42.0618C0 57.8121 12.7682 70.5803 28.5185 70.5803H41.4815C57.2318 70.5803 70 57.8121 70 42.0618V29.0988C70 13.3485 57.2318 0.580322 41.4815 0.580322H28.5185Z" fill="#6D6D6D"/>
</svg>
