<svg width="71" height="71" viewBox="0 0 71 71" fill="none" xmlns="http://www.w3.org/2000/svg">
<path fill-rule="evenodd" clip-rule="evenodd" d="M42.3399 12.4948H29.3769C20.0699 12.4948 12.5251 20.0396 12.5251 29.3466V42.3096C12.5251 51.6166 20.0699 59.1615 29.3769 59.1615H42.3399C51.6469 59.1615 59.1917 51.6166 59.1917 42.3096V29.3466C59.1917 20.0396 51.6469 12.4948 42.3399 12.4948ZM29.3769 0.828125C13.6266 0.828125 0.858398 13.5963 0.858398 29.3466V42.3096C0.858398 58.0599 13.6266 70.8281 29.3769 70.8281H42.3399C58.0902 70.8281 70.8584 58.0599 70.8584 42.3096V29.3466C70.8584 13.5963 58.0902 0.828125 42.3399 0.828125H29.3769Z" fill="#28C166"/>
</svg>
