<svg width="68" height="68" viewBox="0 0 68 68" fill="none" xmlns="http://www.w3.org/2000/svg">
<path fill-rule="evenodd" clip-rule="evenodd" d="M39.8849 11.8548H27.4955C18.6003 11.8548 11.3893 19.0658 11.3893 27.961V40.3504C11.3893 49.2456 18.6003 56.4566 27.4955 56.4566H39.8849C48.7801 56.4566 55.9911 49.2456 55.9911 40.3504V27.961C55.9911 19.0658 48.7801 11.8548 39.8849 11.8548ZM27.4955 0.704346C12.4421 0.704346 0.238892 12.9076 0.238892 27.961V40.3504C0.238892 55.4038 12.4421 67.607 27.4955 67.607H39.8849C54.9383 67.607 67.1415 55.4038 67.1415 40.3504V27.961C67.1415 12.9076 54.9383 0.704346 39.8849 0.704346H27.4955Z" fill="#9719FA"/>
</svg>
