<svg width="71" height="71" viewBox="0 0 71 71" fill="none" xmlns="http://www.w3.org/2000/svg">
<path fill-rule="evenodd" clip-rule="evenodd" d="M43.1195 11.9631H28.1195C19.1449 11.9631 11.8695 19.2385 11.8695 28.2131V43.2131C11.8695 52.1878 19.1449 59.4631 28.1195 59.4631H43.1195C52.0941 59.4631 59.3695 52.1878 59.3695 43.2131V28.2131C59.3695 19.2385 52.0941 11.9631 43.1195 11.9631ZM28.1195 0.713135C12.9317 0.713135 0.619507 13.0253 0.619507 28.2131V43.2131C0.619507 58.401 12.9317 70.7131 28.1195 70.7131H43.1195C58.3073 70.7131 70.6195 58.401 70.6195 43.2131V28.2131C70.6195 13.0253 58.3073 0.713135 43.1195 0.713135H28.1195Z" fill="#FA4119"/>
</svg>
