<svg width="70" height="80" viewBox="0 0 70 80" fill="none" xmlns="http://www.w3.org/2000/svg">
<path fill-rule="evenodd" clip-rule="evenodd" d="M54.8717 31.9109H15.1282V60.0676C15.1282 65.4922 19.5766 69.8897 25.0641 69.8897H44.9358C50.4233 69.8897 54.8717 65.4922 54.8717 60.0676V31.9109ZM5.19226 22.0887V60.0676C5.19226 70.9168 14.0892 79.7118 25.0641 79.7118H44.9358C55.9107 79.7118 64.8076 70.9168 64.8076 60.0676V22.0887H5.19226Z" fill="black"/>
<path fill-rule="evenodd" clip-rule="evenodd" d="M24.9038 21.7887L45.0961 21.7887L45.0961 19.8079C45.0961 14.3381 40.5759 9.90391 35 9.90391C29.424 9.90391 24.9038 14.3381 24.9038 19.8079L24.9038 21.7887ZM55.1923 31.6926L55.1923 19.8079C55.1923 8.86826 46.1519 -5.03805e-05 35 -5.13542e-05C23.8481 -5.2328e-05 14.8076 8.86826 14.8076 19.8079L14.8076 31.6926L55.1923 31.6926Z" fill="black"/>
<path d="M0.384644 22.0887H69.6154V31.6926H0.384644V22.0887Z" fill="black"/>
</svg>
