<svg width="96" height="96" viewBox="0 0 96 96" fill="none" xmlns="http://www.w3.org/2000/svg">
<rect width="96" height="96" rx="16" fill="white"/>
<path d="M61.3333 43.5C63.2341 43.5 65.0569 42.7449 66.4009 41.4009C67.7449 40.0569 68.5 38.2341 68.5 36.3333V34.6667C68.5 32.7659 67.7449 30.9431 66.4009 29.5991C65.0569 28.2551 63.2341 27.5 61.3333 27.5H59.6667C57.7659 27.5 55.9431 28.2551 54.5991 29.5991C53.2551 30.9431 52.5 32.7659 52.5 34.6667V39.1667H43.5V34.6667C43.5 32.7659 42.7449 30.9431 41.4009 29.5991C40.0569 28.2551 38.2341 27.5 36.3333 27.5H34.6667C32.7659 27.5 30.9431 28.2551 29.5991 29.5991C28.2551 30.9431 27.5 32.7659 27.5 34.6667V36.3333C27.5 38.2341 28.2551 40.0569 29.5991 41.4009C30.9431 42.7449 32.7659 43.5 34.6667 43.5H39.1667V52.5H34.6667C32.7659 52.5 30.9431 53.2551 29.5991 54.5991C28.2551 55.9431 27.5 57.7659 27.5 59.6667V61.3333C27.5 63.2341 28.2551 65.0569 29.5991 66.4009C30.9431 67.7449 32.7659 68.5 34.6667 68.5H36.3333C38.2341 68.5 40.0569 67.7449 41.4009 66.4009C42.7449 65.0569 43.5 63.2341 43.5 61.3333V56.8333H52.5V61.3333C52.5 63.2341 53.2551 65.0569 54.5991 66.4009C55.9431 67.7449 57.7659 68.5 59.6667 68.5H61.3333C63.2341 68.5 65.0569 67.7449 66.4009 66.4009C67.7449 65.0569 68.5 63.2341 68.5 61.3333V59.6667C68.5 57.7659 67.7449 55.9431 66.4009 54.5991C65.0569 53.2551 63.2341 52.5 61.3333 52.5H56.8333V43.5H61.3333ZM56.8333 34.6667C56.8333 33.9152 57.1318 33.1946 57.6632 32.6632C58.1945 32.1318 58.9152 31.8333 59.6667 31.8333H61.3333C62.0848 31.8333 62.8054 32.1318 63.3368 32.6632C63.8682 33.1946 64.1667 33.9152 64.1667 34.6667V36.3333C64.1667 37.0848 63.8682 37.8054 63.3368 38.3368C62.8054 38.8682 62.0848 39.1667 61.3333 39.1667H56.8333V34.6667ZM34.6667 39.1667C33.9152 39.1667 33.1946 38.8682 32.6632 38.3368C32.1318 37.8054 31.8333 37.0848 31.8333 36.3333V34.6667C31.8333 33.9152 32.1318 33.1946 32.6632 32.6632C33.1946 32.1318 33.9152 31.8333 34.6667 31.8333H36.3333C37.0848 31.8333 37.8054 32.1318 38.3368 32.6632C38.8682 33.1946 39.1667 33.9152 39.1667 34.6667V39.1667H34.6667ZM39.1667 61.3333C39.1667 62.0848 38.8682 62.8054 38.3368 63.3368C37.8054 63.8682 37.0848 64.1667 36.3333 64.1667H34.6667C33.9152 64.1667 33.1946 63.8682 32.6632 63.3368C32.1318 62.8054 31.8333 62.0848 31.8333 61.3333V59.6667C31.8333 58.9152 32.1318 58.1945 32.6632 57.6632C33.1946 57.1318 33.9152 56.8333 34.6667 56.8333H39.1667V61.3333ZM52.5 52.5H43.5V43.5H52.5V52.5ZM56.8333 56.8333H61.3333C62.0848 56.8333 62.8054 57.1318 63.3368 57.6632C63.8682 58.1946 64.1667 58.9152 64.1667 59.6667V61.3333C64.1667 62.0848 63.8682 62.8054 63.3368 63.3368C62.8054 63.8682 62.0848 64.1667 61.3333 64.1667H59.6667C58.9152 64.1667 58.1946 63.8682 57.6632 63.3368C57.1318 62.8054 56.8333 62.0848 56.8333 61.3333V56.8333Z" fill="#404040" stroke="#404040"/>
</svg>
