<svg width="71" height="70" viewBox="0 0 71 70" fill="none" xmlns="http://www.w3.org/2000/svg">
<path fill-rule="evenodd" clip-rule="evenodd" d="M41.862 11.6667H28.899C19.592 11.6667 12.0472 19.2115 12.0472 28.5185V41.4815C12.0472 50.7885 19.592 58.3333 28.899 58.3333H41.862C51.169 58.3333 58.7138 50.7885 58.7138 41.4815V28.5185C58.7138 19.2115 51.169 11.6667 41.862 11.6667ZM28.899 0C13.1487 0 0.380493 12.7682 0.380493 28.5185V41.4815C0.380493 57.2318 13.1487 70 28.899 70H41.862C57.6123 70 70.3805 57.2318 70.3805 41.4815V28.5185C70.3805 12.7682 57.6123 0 41.862 0H28.899Z" fill="#DBBA0D"/>
</svg>
