<svg width="71" height="71" viewBox="0 0 71 71" fill="none" xmlns="http://www.w3.org/2000/svg">
<path fill-rule="evenodd" clip-rule="evenodd" d="M42.3399 12.247H29.3769C20.0699 12.247 12.5251 19.7918 12.5251 29.0988V42.0618C12.5251 51.3688 20.0699 58.9137 29.3769 58.9137H42.3399C51.6469 58.9137 59.1917 51.3688 59.1917 42.0618V29.0988C59.1917 19.7918 51.6469 12.247 42.3399 12.247ZM29.3769 0.580322C13.6266 0.580322 0.858398 13.3485 0.858398 29.0988V42.0618C0.858398 57.8121 13.6266 70.5803 29.3769 70.5803H42.3399C58.0902 70.5803 70.8584 57.8121 70.8584 42.0618V29.0988C70.8584 13.3485 58.0902 0.580322 42.3399 0.580322H29.3769Z" fill="#1992FA"/>
</svg>
