<svg width="71" height="71" viewBox="0 0 71 71" fill="none" xmlns="http://www.w3.org/2000/svg">
<path fill-rule="evenodd" clip-rule="evenodd" d="M41.862 12.247H28.899C19.592 12.247 12.0472 19.7918 12.0472 29.0988V42.0618C12.0472 51.3688 19.592 58.9137 28.899 58.9137H41.862C51.169 58.9137 58.7138 51.3688 58.7138 42.0618V29.0988C58.7138 19.7918 51.169 12.247 41.862 12.247ZM28.899 0.580322C13.1487 0.580322 0.380493 13.3485 0.380493 29.0988V42.0618C0.380493 57.8121 13.1487 70.5803 28.899 70.5803H41.862C57.6123 70.5803 70.3805 57.8121 70.3805 42.0618V29.0988C70.3805 13.3485 57.6123 0.580322 41.862 0.580322H28.899Z" fill="#B50C1F"/>
</svg>
